# xmcd
#
# Track frame offsets:
#	150
#	9543
#	17721
#	27964
#	36875
#	46836
#	57040
#	69323
#	78852
#	88344
#	99165
#	109296
#	120690
#	131252
#	141108
#	151937
#	161282
#	173059
#	183867
#	193710
#	204530
#	215169
#	226674
#	238032
#	249915
#	262910
#	271380
#	281830
#	292302
#	304153
#	314691
#	324765
#	336546
#
# Disc length: 4620 seconds
#
# Revision: 0
# Processed by: cddbd v1.5PL3 Copyright (c) Steve Scherf et al.
# Submitted via: dBpowerAMP V4.0
#
DISCID=cf120a21
DTITLE=Wynn Stewart - Wynn Stewart
DYEAR=2000
DGENRE=
TTITLE0=Never Out of My Heart - 1988
TTITLE1=Rain, Rain
TTITLE2=Never Out of My Heart - 2000
TTITLE3=Above and Beyond (the Call of Love)
TTITLE4=Open Up My Heart (basic track)
TTITLE5=Open Up My Heart
TTITLE6=Wishful Thinking - 1959
TTITLE7=Wishful Thinking - 1988
TTITLE8=Uncle Tom Got Caught
TTITLE9=We'll Never Love Again (& Jan Howard)
TTITLE10=Wrong Company (& Jan Howard)
TTITLE11=Heartaches for a Dime
TTITLE12=Playboy
TTITLE13=Searching for Another You
TTITLE14=Big City
TTITLE15=If You See My Baby
TTITLE16=I'd Rather Have America
TTITLE17=Big, Big Love
TTITLE18=One More Memory
TTITLE19=Wall to Wall Heartaches
TTITLE20=Girl in White
TTITLE21=Donna on my Mind
TTITLE22=Falling for You
TTITLE23=Judy (with overdub)
TTITLE24=I Don't Feel at Home
TTITLE25=I Done Done It
TTITLE26=Loversville
TTITLE27=Three Cheers for the Loser
TTITLE28=Judy (w/o overdub)
TTITLE29=Playboy - 1988
TTITLE30=If You See My Baby
TTITLE31=I'd Rather Have America - 1965
TTITLE32=If You See My Baby
EXTD=
EXTT0=
EXTT1=
EXTT2=
EXTT3=
EXTT4=
EXTT5=
EXTT6=
EXTT7=
EXTT8=
EXTT9=
EXTT10=
EXTT11=
EXTT12=
EXTT13=
EXTT14=
EXTT15=
EXTT16=
EXTT17=
EXTT18=
EXTT19=
EXTT20=
EXTT21=
EXTT22=
EXTT23=
EXTT24=
EXTT25=
EXTT26=
EXTT27=
EXTT28=
EXTT29=
EXTT30=
EXTT31=
EXTT32=
PLAYORDER=
